<?xml version="1.0" encoding="UTF-8" standalone="no"?>
<svg xmlns:dc="http://purl.org/dc/elements/1.1/" xmlns:cc="http://creativecommons.org/ns#" xmlns:rdf="http://www.w3.org/1999/02/22-rdf-syntax-ns#" xmlns:svg="http://www.w3.org/2000/svg" xmlns="http://www.w3.org/2000/svg" viewBox="0 0 465.20001 476.2001" height="465.20001" width="465.20001" xml:space="preserve" id="svg2" version="1.1"><metadata id="metadata8"><rdf:RDF><cc:Work rdf:about=""><dc:format>image/svg+xml</dc:format><dc:type rdf:resource="http://purl.org/dc/dcmitype/StillImage"/></cc:Work></rdf:RDF></metadata><defs id="defs6"><clipPath id="clipPath44" clipPathUnits="userSpaceOnUse"><path id="path42" d="M 0,0 H 3489 V 4735 H 0 Z"/></clipPath><clipPath id="clipPath50" clipPathUnits="userSpaceOnUse"><path style="clip-rule:evenodd" id="path48" d="m 3489.02,2914.3 c 0,126.22 -11.32,247.6 -32.37,364.11 H 1780.11 v -688.58 h 958.03 c -41.27,-222.51 -166.69,-411.05 -355.21,-537.27 v -446.65 h 575.29 c 336.61,309.91 530.8,766.26 530.8,1308.39 v 0 z"/></clipPath><clipPath id="clipPath60" clipPathUnits="userSpaceOnUse"><path style="clip-rule:evenodd" id="path58" d="m 1780.11,1174.64 c 480.63,0 883.59,159.4 1178.11,431.27 l -575.29,446.65 c -159.41,-106.81 -363.31,-169.92 -602.82,-169.92 -463.64,0 -856.075,313.14 -996.051,733.9 H 189.34 v -461.22 c 292.906,-581.78 894.9,-980.68 1590.77,-980.68 v 0 z"/></clipPath><clipPath id="clipPath70" clipPathUnits="userSpaceOnUse"><path style="clip-rule:evenodd" id="path68" d="m 784.059,2616.54 c -35.61,106.8 -55.836,220.89 -55.836,338.22 0,117.32 20.226,231.41 55.836,338.22 v 461.2 H 189.34 C 68.7734,3513.87 0,3242 0,2954.76 0,2667.51 68.7734,2395.63 189.34,2155.32 l 594.719,461.22 v 0 z"/></clipPath><clipPath id="clipPath80" clipPathUnits="userSpaceOnUse"><path style="clip-rule:evenodd" id="path78" d="m 1780.11,4026.87 c 261.35,0 496.01,-89.82 680.49,-266.21 l 510.57,510.57 c -308.29,287.24 -711.24,463.64 -1191.06,463.64 -695.87,0 -1297.864,-398.91 -1590.77,-980.69 l 594.719,-461.2 c 139.976,420.75 532.411,733.89 996.051,733.89 v 0 z"/></clipPath></defs><g transform="matrix(1.3333333,0,0,-1.3333333,0,631.32)" id="g10"><g transform="scale(0.1)" id="g12"><g id="g38"><g clip-path="url(#clipPath44)" id="g40"><g clip-path="url(#clipPath50)" id="g46"><path id="path52" style="fill:#5575c3;fill-opacity:1;fill-rule:nonzero;stroke:none" d="M 791.16,4267.36 H 4477.97 V 616.961 H 791.16 V 4267.36"/></g></g></g><g id="g54"><g clip-path="url(#clipPath60)" id="g56"><path id="path62" style="fill:#3bac49;fill-opacity:1;fill-rule:nonzero;stroke:none" d="M -799.613,3605.48 H 3947.18 V 185.68 H -799.613 v 3419.8"/></g></g><g id="g64"><g clip-path="url(#clipPath70)" id="g66"><path id="path72" style="fill:#f5b60b;fill-opacity:1;fill-rule:nonzero;stroke:none" d="M -988.953,4743.14 H 1773.01 V 1166.37 H -988.953 v 3576.77"/></g></g><g id="g74"><g clip-path="url(#clipPath80)" id="g76"><path id="path82" style="fill:#e8302f;fill-opacity:1;fill-rule:nonzero;stroke:none" d="M -799.613,5723.82 H 3960.12 V 2304.02 H -799.613 v 3419.8"/></g></g></g></g></svg>